<svg width="13" height="10" viewBox="0 0 13 10" fill="none" xmlns="http://www.w3.org/2000/svg">
<path fill-rule="evenodd" clip-rule="evenodd" d="M1.58767 0.951474C1.58767 0.951474 3.23883 3.28914 6.28114 3.33691C6.28114 3.33691 6.02171 1.30962 7.76686 0.68918C7.76686 0.68918 9.25258 0.0692097 10.2433 1.23805C10.2433 1.23805 11.3988 1.04699 11.6582 0.68918C11.6582 0.68918 11.5874 1.40768 10.7856 1.931C10.7856 1.931 11.5169 1.92989 12.0354 1.64348C12.0354 1.64348 11.3057 2.56667 10.99 2.71043C10.9845 2.71282 10.9794 2.71503 10.9742 2.71694C10.6678 2.83627 11.3045 4.91164 9.3942 7.36863C9.3942 7.36863 7.94678 9.34815 5.2431 9.7301C4.14361 9.88544 2.53103 10.0165 0.903687 8.7758C0.903687 8.7758 2.55453 8.99065 4.20542 7.75026C4.20542 7.75026 2.50759 7.60697 2.10653 6.17567C2.10653 6.17567 2.88478 6.17567 3.04989 6.15204C3.04989 6.15204 1.23394 5.5316 1.25775 3.77835C1.25775 3.77835 1.8706 4.0527 2.21275 4.01684C2.21275 4.01684 0.679709 2.85976 1.58767 0.951474Z" fill="#373F41"/>
</svg>
